<?xml version="1.0" standalone="no"?>
<!DOCTYPE svg PUBLIC "-//W3C//DTD SVG 20010904//EN"
 "http://www.w3.org/TR/2001/REC-SVG-20010904/DTD/svg10.dtd">
<svg version="1.0" xmlns="http://www.w3.org/2000/svg"
 width="16.000000pt" height="16.000000pt" viewBox="0 0 16.000000 16.000000"
 preserveAspectRatio="xMidYMid meet">
<metadata>
Created by potrace 1.11, written by Peter Selinger 2001-2013
</metadata>
<g transform="translate(0.000000,16.000000) scale(0.018824,-0.018824)"
fill="#000000" stroke="none">
<path d="M360 751 c-19 -10 -34 -23 -32 -29 1 -7 -2 -12 -8 -12 -5 0 -10 -7
-10 -15 0 -8 -5 -15 -10 -15 -6 0 -11 -12 -11 -27 -2 -87 2 -112 22 -154 l21
-47 64 65 c35 36 68 62 74 58 5 -3 10 1 10 9 0 10 9 16 23 16 12 0 29 4 36 9
9 6 22 6 32 0 12 -6 20 -5 24 1 5 8 11 7 21 -1 11 -9 17 -9 29 1 8 7 15 8 15
3 0 -5 8 -9 18 -10 9 -1 31 -4 47 -7 17 -4 24 -3 18 0 -7 3 -13 11 -13 17 0 7
-14 25 -31 41 -27 26 -39 30 -99 32 -71 3 -139 -8 -149 -24 -3 -5 -14 -9 -23
-9 -13 0 -15 4 -7 19 5 10 14 18 18 18 5 0 19 11 32 25 13 13 32 25 42 25 9 0
17 4 17 9 0 4 -11 7 -25 6 -14 -2 -27 1 -31 6 -3 5 -11 6 -17 2 -18 -11 -40
-13 -52 -3 -6 4 -25 1 -45 -9z"/>
<path d="M250 700 c-13 -8 -12 -10 3 -10 9 0 17 5 17 10 0 12 -1 12 -20 0z"/>
<path d="M213 693 c11 -10 -13 -33 -34 -33 -11 0 -18 -3 -18 -7 1 -5 1 -10 0
-13 -8 -20 -8 -90 -1 -90 5 0 14 -9 20 -20 8 -15 8 -20 -1 -18 -6 2 -14 -3
-16 -9 -3 -7 2 -13 11 -13 10 0 13 -6 10 -15 -4 -8 -2 -15 3 -15 4 0 14 -10
22 -22 13 -22 13 -22 -4 -8 -17 13 -18 13 -13 -1 4 -10 1 -16 -8 -16 -8 0 -13
6 -10 12 2 6 -5 17 -16 24 -18 11 -20 11 -15 -4 4 -10 3 -14 -4 -10 -6 4 -8
13 -5 20 7 19 -30 49 -50 41 -16 -6 -12 -21 7 -21 5 0 9 -3 9 -7 0 -5 -3 -8
-6 -7 -18 2 -21 -27 -6 -45 9 -11 12 -16 5 -13 -23 14 -23 -12 1 -40 17 -19
34 -28 58 -29 18 -1 52 -8 76 -15 36 -11 44 -11 51 0 7 10 10 10 13 1 3 -9 9
-8 22 5 15 15 19 16 27 4 8 -12 13 -6 10 13 -1 8 34 2 51 -8 6 -4 8 -3 4 4 -3
5 0 13 6 16 9 4 8 5 -2 5 -37 -3 -51 2 -44 13 5 8 1 9 -12 4 -14 -5 -16 -4 -8
4 9 9 3 20 -26 46 -20 19 -43 34 -50 34 -10 0 -10 3 0 14 9 12 8 17 -9 27 -15
10 -17 17 -10 30 10 19 2 52 -11 44 -4 -3 -10 10 -12 29 -3 26 -1 33 11 28 8
-3 12 -1 8 4 -3 6 -2 16 3 24 6 9 3 18 -8 27 -17 13 -41 18 -29 6z m117 -297
c0 -5 -9 -1 -20 9 -11 10 -20 22 -20 26 0 5 9 1 20 -8 11 -10 20 -22 20 -27z"/>
<path d="M540 559 c0 -3 -13 -6 -29 -7 -35 -1 -71 -18 -71 -34 0 -6 3 -9 6 -5
4 3 23 -2 44 -13 39 -20 115 -114 105 -130 -4 -6 -1 -10 6 -10 7 0 9 -10 7
-25 -3 -14 -2 -25 2 -25 5 0 6 -21 3 -47 -3 -27 -6 -58 -7 -70 -1 -13 -5 -23
-11 -23 -5 0 -4 -4 4 -9 9 -6 22 -2 38 13 14 11 30 21 36 21 7 0 12 9 12 20 0
11 3 23 8 26 11 8 11 113 -1 136 -6 11 -9 23 -5 26 3 4 0 13 -7 22 -7 8 -9 15
-4 15 5 0 2 5 -6 10 -9 6 -10 10 -3 10 7 0 16 -6 20 -14 4 -7 18 -18 30 -25
13 -6 22 -15 21 -19 -3 -9 25 -52 33 -52 3 0 6 12 7 28 0 15 3 36 5 47 2 11 1
32 -4 48 -5 17 -4 27 3 27 23 0 -37 41 -76 51 -45 13 -166 19 -166 8z"/>
<path d="M488 376 c-21 -24 -51 -50 -68 -57 -16 -8 -30 -17 -30 -21 0 -5 -3
-7 -7 -6 -5 1 -28 -4 -53 -11 -50 -15 -185 -7 -207 11 -30 25 -10 -12 30 -54
30 -32 49 -44 67 -43 14 2 31 -2 37 -7 7 -6 25 -7 40 -2 16 4 38 7 51 7 12 0
22 4 22 9 0 5 8 8 18 6 11 -2 26 3 35 11 31 25 18 -8 -14 -39 -30 -28 -42 -34
-61 -31 -5 0 -8 -6 -8 -14 0 -10 11 -15 38 -16 93 -3 166 7 157 21 -3 5 3 16
12 26 14 14 18 35 18 103 0 47 -4 95 -9 106 -5 11 -10 24 -10 29 -2 23 -25 13
-58 -28z"/>
</g>
</svg>
