<?xml version="1.0" encoding="utf-8"?>
<!-- Generator: Adobe Illustrator 19.0.0, SVG Export Plug-In . SVG Version: 6.00 Build 0)  -->
<svg version="1.1" id="Capa_1" xmlns="http://www.w3.org/2000/svg" xmlns:xlink="http://www.w3.org/1999/xlink" x="0px" y="0px"
	 viewBox="0 0 711.1 799.9" style="enable-background:new 0 0 711.1 799.9;" xml:space="preserve">
<style type="text/css">
	.st0{fill:#FFFFFF;}
</style>
<g id="XMLID_1_">
	<path id="XMLID_39_" class="st0" d="M570.7,201.2h-117c-12.9,0-23.4,10.5-23.4,23.4v14.1h28.1c28.4,0,51.4,23.1,51.4,51.4v74.9
		h60.8c12.9,0,23.4-10.5,23.4-23.4v-117C594.1,211.6,583.6,201.2,570.7,201.2z"/>
	<path id="XMLID_45_" class="st0" d="M430.4,341.5V238.6h-28.1c-28.4,0-51.4,23-51.4,51.4v322.8c0,0-2.7,56.1-95.9,56.1
		c-93.2,0-95.9-56.1-95.9-56.1V290c0-28.4-23-51.4-51.4-51.4H51.4C23,238.6,0,261.6,0,290v308.8c0,111,90.1,201.1,201.2,201.1h107.6
		c111.1,0,201.2-90,201.2-201.1V364.9h-56.2C440.8,364.9,430.4,354.4,430.4,341.5z"/>
	<path id="XMLID_47_" class="st0" d="M692.3,79.5h-84.2c-10.4,0-18.7,8.4-18.7,18.7v84.2c0,10.4,8.4,18.7,18.7,18.7h84.2
		c10.4,0,18.7-8.4,18.7-18.7V98.3C711.1,87.9,702.7,79.5,692.3,79.5z"/>
	<path id="XMLID_48_" class="st0" d="M523.9,84.2h56.2c7.7,0,14-6.3,14-14V14c0-7.7-6.3-14-14-14h-56.2c-7.7,0-14,6.3-14,14v56.2
		C509.9,77.9,516.2,84.2,523.9,84.2z"/>
</g>
</svg>
