<?xml version="1.0" encoding="utf-8"?>
<!-- Generator: Adobe Illustrator 19.0.0, SVG Export Plug-In . SVG Version: 6.00 Build 0)  -->
<svg version="1.1" id="Capa_1" xmlns="http://www.w3.org/2000/svg" xmlns:xlink="http://www.w3.org/1999/xlink" x="0px" y="0px"
	 viewBox="0 0 1190.7 595.1" style="enable-background:new 0 0 1190.7 595.1;" xml:space="preserve">
<style type="text/css">
	.st0{display:none;fill:#47914F;}
	.st1{fill:#FFFFFF;}
</style>
<title></title>
<desc></desc>
<path id="rect_1_" class="st0" d="M1126.1-65.8c-62.6,0-724.8,0-1094.7,0c-31.3,0-62.6,31.3-62.6,62.6c0,188.1,0,563.3,0,625.8
	c0,62.6,31.3,93.9,93.8,93.9c348.9,0,1000.9,0,1063.4,0s93.8-31.3,93.8-93.9s0-386.7,0-594.5C1219.9-34.5,1188.6-65.8,1126.1-65.8z"
	/>
<path id="XMLID_6_" class="st1" d="M1017.3,147.4h-17.4c-17.5,0-31.8,14.2-31.8,31.8v199.4c0,0-1.6,34.7-59.2,34.7
	c-57.6,0-59.2-34.7-59.2-34.7V179.2c0-17.5-14.2-31.8-31.8-31.8h-34.7c-17.5,0-31.8,14.2-31.8,31.8V370
	c0,68.6,55.6,124.2,124.3,124.2h66.5c68.6,0,124.3-55.6,124.3-124.2V225.4h37.6c8,0,14.4-6.5,14.4-14.4v-72.3
	c0-8-6.5-14.4-14.4-14.4h-72.3c-8,0-14.4,6.5-14.4,14.4V147.4L1017.3,147.4z M1017.3,147.4h17.4c17.5,0,31.8,14.3,31.8,31.8v46.3
	h-34.7c-8,0-14.4-6.5-14.4-14.4V147.4L1017.3,147.4z M1115.6,60.7c0-6.4,5.2-11.6,11.6-11.6h52c6.4,0,11.6,5.2,11.6,11.6v52
	c0,6.4-5.2,11.6-11.6,11.6h-52c-6.4,0-11.6-5.2-11.6-11.6V60.7z M1066.4,8.6c0-4.8,3.9-8.6,8.6-8.6h34.7c4.8,0,8.6,3.9,8.6,8.6v34.7
	c0,4.8-3.9,8.6-8.6,8.6h-34.7c-4.8,0-8.6-3.9-8.6-8.6V8.6z M610.6,494.3c-1,0.2-6.6,1-6.6,1c-56,7.3-67.1-34.3-76.8-66L478.5,248
	c-2.5-9.3,3.2-16.8,12.8-16.8h11.5c9.6,0,19.4,7.5,21.9,16.8c0,0,31,115.4,48.8,181.5c5.3,13.4,12,25.8,26.7,25.8
	c14.7,0,22.3-3,29.1-28l42.3-179.1c2.2-9.3,11.8-16.9,21.3-16.9h11.4c9.6,0,15.5,7.6,13.2,16.9l-55.9,229.1
	C635.8,578.3,602.7,593,549.2,595.1c-16.3-2.1-24.7-35.3-11.4-40.6c0,0,27,0.2,42.5-11.1c16.8-12.2,24-31.7,27.9-42.9
	C608.5,500.5,610.3,494.9,610.6,494.3z"/>
<path id="XMLID_39_" class="st1" d="M1906.8-145.2h-53.2c-5.9,0-10.6,4.8-10.6,10.6v6.4h12.8c12.9,0,23.4,10.5,23.4,23.4v34h27.7
	c5.9,0,10.6-4.8,10.6-10.6v-53.2C1917.4-140.5,1912.7-145.2,1906.8-145.2z"/>
<path id="XMLID_45_" class="st1" d="M1843-81.4v-46.8h-12.8c-12.9,0-23.4,10.5-23.4,23.4V41.9c0,0-1.2,25.5-43.6,25.5
	c-42.4,0-43.6-25.5-43.6-25.5v-146.7c0-12.9-10.5-23.4-23.4-23.4h-25.6c-12.9,0-23.4,10.5-23.4,23.4V35.5
	c0,50.5,40.9,91.4,91.4,91.4h48.9c50.5,0,91.4-40.9,91.4-91.4V-70.8h-25.5C1847.7-70.8,1843-75.6,1843-81.4z"/>
<path id="XMLID_47_" class="st1" d="M1962.1-200.5h-38.3c-4.7,0-8.5,3.8-8.5,8.5v38.3c0,4.7,3.8,8.5,8.5,8.5h38.3
	c4.7,0,8.5-3.8,8.5-8.5V-192C1970.6-196.7,1966.8-200.5,1962.1-200.5z"/>
<path id="XMLID_48_" class="st1" d="M1885.5-198.4h25.5c3.5,0,6.4-2.8,6.4-6.4v-25.5c0-3.5-2.8-6.4-6.4-6.4h-25.5
	c-3.5,0-6.4,2.8-6.4,6.4v25.5C1879.1-201.3,1882-198.4,1885.5-198.4z"/>
<path id="Path_3_" class="st1" d="M416.2,338.1H328c-42.3,0-76.6,34.3-76.6,76.6c0,42.3,34.3,76.6,76.6,76.6h57.7
	c42.3,0,76.6-34.3,76.6-76.6v-65v-46.2c0-78-83.9-78-106.9-78c-29.8,0-66.6,4.5-66.6,4.5c-6.4,0.7-11.5,6.4-11.5,12.8v17.4
	c0,6.4,5.1,11,11.5,10.3c0,0,40.3-4.6,64.3-4.6c23,0,62.9,0,62.9,37.6V338.1z M297.7,413.3c0-22.3,18.1-40.5,40.4-40.5h78v40.5
	c0,22.3-18.1,40.5-40.4,40.5h-37.6C315.8,453.7,297.7,435.6,297.7,413.3z"/>
<path id="XMLID_14_" class="st1" d="M156.1,147.4H49.2C22,147.4,0,169.4,0,196.5v280.3c0,8,6.5,14.4,14.5,14.4h20.2
	c8,0,14.5-6.5,14.5-14.5V369.9h106.9c52.7,0,95.4-42.7,95.4-95.3v-31.8C251.4,190.1,208.7,147.4,156.1,147.4z M140.1,323.7h-91
	V207.8c0-7.8,6.3-14.2,14.2-14.2h76.8c35.9,0,65.1,29.1,65.1,65C205.2,294.6,176.1,323.7,140.1,323.7z"/>
</svg>
